<svg width="26" height="29" viewBox="0 0 26 29" fill="none" xmlns="http://www.w3.org/2000/svg">
<path d="M24.6 16.9H23.9V3.20001H24.6C25.3 3.20001 25.9 2.59999 25.9 1.89999C25.9 1.19999 25.3 0.600006 24.6 0.600006H1.5C0.8 0.600006 0.2 1.19999 0.2 1.89999C0.2 2.59999 0.8 3.20001 1.5 3.20001H2.2V16.9H1.5C0.8 16.9 0.2 17.5 0.2 18.2C0.2 18.9 0.8 19.5 1.5 19.5H7.9L5.4 27.3C5.2 28 5.5 28.7 6.2 28.9C6.9 29.1 7.6 28.8 7.8 28.1L10.6 19.5H15.4L18.2 28.1C18.4 28.6 18.9 29 19.4 29C19.5 29 19.7 29 19.8 28.9C20.5 28.7 20.8 27.9 20.6 27.3L18.1 19.5H24.5C25.2 19.5 25.8 18.9 25.8 18.2C25.9 17.5 25.3 16.9 24.6 16.9ZM14.8 15.6C14.8 15.1 15.2 14.7 15.7 14.7H19.8C20.3 14.7 20.7 15.1 20.7 15.6V16.9H14.8V15.6Z" fill="white"/>
</svg>
