<svg width="30" height="30" viewBox="0 0 30 30" fill="none" xmlns="http://www.w3.org/2000/svg">
<path d="M1.37195 26.227H12.8594C14.6197 28.454 17.3439 29.8855 20.3963 29.8855C25.6918 29.8855 30 25.5773 30 20.2819C30 14.9864 25.6918 10.6782 20.3963 10.6782C17.242 10.6782 14.438 12.2071 12.6862 14.5627C11.9761 14.4138 11.2507 14.3368 10.5183 14.3368C4.71851 14.3368 0 19.0553 0 24.8551C0 25.6127 0.614268 26.227 1.37195 26.227ZM20.3963 13.4221C24.1788 13.4221 27.2561 16.4994 27.2561 20.2819C27.2561 24.0644 24.1788 27.1416 20.3963 27.1416C16.6139 27.1416 13.5366 24.0644 13.5366 20.2819C13.5366 16.4994 16.6139 13.4221 20.3963 13.4221Z" fill="white"/>
<path d="M10.5187 0.114258C7.3539 0.114258 4.7793 2.68895 4.7793 5.85368C4.7793 9.0184 7.3539 11.5929 10.5187 11.5929C13.6834 11.5929 16.2581 9.0184 16.2581 5.85368C16.2581 2.68895 13.6834 0.114258 10.5187 0.114258Z" fill="white"/>
<path d="M17.6522 21.6538H19.0242V23.0258C19.0242 23.7835 19.6384 24.3977 20.3961 24.3977C21.1538 24.3977 21.7681 23.7835 21.7681 23.0258V21.6538H23.14C23.8977 21.6538 24.512 21.0396 24.512 20.2819C24.512 19.5242 23.8977 18.9099 23.14 18.9099H21.7681V17.538C21.7681 16.7803 21.1538 16.166 20.3961 16.166C19.6384 16.166 19.0242 16.7803 19.0242 17.538V18.9099H17.6522C16.8945 18.9099 16.2803 19.5242 16.2803 20.2819C16.2803 21.0396 16.8945 21.6538 17.6522 21.6538Z" fill="white"/>
</svg>
