<svg width="26" height="22" viewBox="0 0 26 22" fill="none" xmlns="http://www.w3.org/2000/svg">
<path d="M12.8 11.3C14.4 11.3 15.7 9.99999 15.7 8.39999C15.7 6.79999 14.4 5.5 12.8 5.5C11.2 5.5 9.9 6.79999 9.9 8.39999C9.9 9.99999 11.2 11.3 12.8 11.3Z" fill="white"/>
<path d="M17.3 8.5C17.3 10.1 18.7 11.4 20.3 11.4C22 11.4 23.3 9.99999 23.3 8.39999C23.3 6.69999 21.9 5.39999 20.3 5.39999C18.8 5.39999 17.5 6.49999 17.3 7.89999C17.3 8.19999 17.3 8.3 17.3 8.5Z" fill="white"/>
<path d="M23.4 12.2C22.6 12.9 21.5 13.3 20.3 13.3C19.7 13.3 19.6 13.3 19.4 13.2C19.8 13.9 19.8 14.5 19.8 15.3V20.8C19.8 21.3 20.2 21.8 20.8 21.8H24.8C25.3 21.8 25.8 21.4 25.8 20.8V15.6C25.7 14.1 24.7 12.8 23.4 12.2Z" fill="white"/>
<path d="M8.4 8C8.2 6.6 6.9 5.5 5.4 5.5C3.7 5.5 2.4 6.9 2.4 8.5C2.4 10.2 3.8 11.5 5.4 11.5C7 11.5 8.4 10.2 8.4 8.60001C8.4 8.30001 8.4 8.2 8.4 8Z" fill="white"/>
<path d="M9.1 5.8C9.7 4.9 10.7 4.2 11.8 4C11.9 3.8 11.9 3.6 11.9 3.3C11.9 1.7 10.6 0.399994 9 0.399994C7.4 0.399994 6.1 1.7 6.1 3.3C6.1 3.5 6.1 3.69999 6.2 3.89999C7.4 4.09999 8.5 4.8 9.1 5.8Z" fill="white"/>
<path d="M16.5 5.89999C17.1 4.89999 18.1 4.2 19.3 4C19.4 3.8 19.4 3.6 19.4 3.3C19.4 1.7 18.1 0.399994 16.5 0.399994C14.9 0.399994 13.6 1.7 13.6 3.3C13.6 3.5 13.6 3.7 13.7 4C14.9 4.1 15.9 4.89999 16.5 5.89999Z" fill="white"/>
<path d="M0.1 15.6V20.8C0.1 21.3 0.5 21.8 1.1 21.8H4.9C5.4 21.8 5.9 21.4 5.9 20.8V15.3C5.9 14.5 5.9 13.8 6.3 13.1C6 13.2 6.1 13.3 5.5 13.3C4.3 13.3 3.3 12.9 2.4 12.2C1 12.8 0.1 14.1 0.1 15.6Z" fill="white"/>
<path d="M15.8 11.7C15 12.4 13.9 12.8 12.8 12.8C11.6 12.8 10.6 12.4 9.8 11.7C8.6 12.1 7.7 13.3 7.7 14.7V20.5C7.7 21.2 8.3 21.7 8.9 21.7H16.7C17.4 21.7 17.9 21.1 17.9 20.5V14.7C17.9 13.4 17 12.2 15.8 11.7ZM16.7 15L13.7 20.3C13.5 20.6 13.3 20.8 12.9 20.8C12.9 20.8 12.9 20.8 12.8 20.8C12.5 20.8 12.2 20.7 12.1 20.4L9.2 16.5C8.9 16.1 9 15.5 9.4 15.2C9.8 14.9 10.4 15 10.7 15.4L12.8 18.2L15.1 14.1C15.4 13.7 15.9 13.5 16.4 13.7C16.8 13.9 16.9 14.5 16.7 15Z" fill="white"/>
</svg>
