<svg width="27" height="29" viewBox="0 0 27 29" fill="none" xmlns="http://www.w3.org/2000/svg">
<path d="M26 6.7L26.1 6.29998C26.2 6.09998 26 5.89998 25.8 5.79998L25.4 5.7L25.7 4.79998C25.8 4.59998 25.7 4.49998 25.5 4.39998L24.7 4.2C24.5 4.1 24.4 4.19998 24.3 4.39998L24 5.29998L23.6 5.2C23.4 5.1 23.2 5.29999 23.1 5.49999L22.7 6.7L18 21.8C18 21.9 18 21.9 18 22L18.3 24.6C18.3 25 18.8 25.1 19 24.8L20.8 22.8C20.8 22.8 20.9 22.7 20.9 22.6L25.6 7.59999L25.7 7.2H25.8C26 7.3 26.1 7.39999 26 7.59999L24.7 11.6L24.2 12.4C24.1 12.5 24.1 12.7 24.1 12.8L24 13.9C24 14 24.1 14.1 24.2 14.2C24.2 14.2 24.2 14.2 24.3 14.2C24.4 14.2 24.6 14.1 24.6 14L24.7 13C24.7 12.9 24.8 12.7 24.8 12.6L25.3 11.8L26.6 7.49999C26.7 7.09999 26.5 6.79999 26.2 6.59999L26 6.7Z" fill="white"/>
<path d="M4.2 7.10001H1C0.5 7.10001 0 6.70001 0 6.10001V6C0 5.5 0.4 5 1 5H4.2C4.7 5 5.2 5.4 5.2 6V6.10001C5.2 6.60001 4.8 7.10001 4.2 7.10001Z" fill="white"/>
<path d="M4.2 12.5H1C0.5 12.5 0 12.1 0 11.5V11.4C0 10.9 0.4 10.4 1 10.4H4.2C4.7 10.4 5.2 10.8 5.2 11.4V11.5C5.2 12.1 4.8 12.5 4.2 12.5Z" fill="white"/>
<path d="M4.2 18H1C0.5 18 0 17.6 0 17V16.9C0 16.4 0.4 15.9 1 15.9H4.2C4.7 15.9 5.2 16.3 5.2 16.9V17C5.2 17.6 4.8 18 4.2 18Z" fill="white"/>
<path d="M22.9 23.1C22.8 23.4 22.6 23.7 22.4 24L20.6 26C20.1 26.5 19.5 26.8 18.8 26.8C17.6 26.8 16.5 25.9 16.4 24.7L16.1 22.1C16.1 21.8 16.1 21.4 16.2 21.1L21.5 4.09999H21.6C21.9 3.79999 22.2 3.49997 22.6 3.29997C22.8 2.89997 23.1 2.69998 23.4 2.49998C23.1 1.49998 22.2 0.799988 21.1 0.799988H5.1C3.7 0.799988 2.7 1.9 2.7 3.2V3.29997H4.3C5.8 3.29997 7 4.49998 7 5.99998C7 7.59998 5.8 8.79997 4.3 8.79997H2.6H4.2C5.7 8.79997 6.9 9.99998 6.9 11.5C6.9 13.1 5.7 14.3 4.2 14.3H2.6H4.2C5.7 14.3 6.9 15.5 6.9 17C6.9 18.6 5.7 19.8 4.2 19.8H2.6H4.2C5.7 19.8 6.9 21 6.9 22.5C6.9 24.1 5.7 25.3 4.2 25.3H2.6V25.4V25.8C2.6 27.2 3.7 28.2 5 28.2H21.1C22.5 28.2 23.5 27.1 23.5 25.8V21L22.9 23.1ZM8.4 9.29997V5.99998C8.4 5.49998 8.9 4.99998 9.4 4.99998H16.8C17.4 4.99998 17.8 5.39998 17.8 5.99998V9.29997C17.8 9.79997 17.3 10.3 16.8 10.3H9.4C8.8 10.3 8.4 9.89997 8.4 9.29997Z" fill="white"/>
<path d="M4.2 23.5H1C0.5 23.5 0 23.1 0 22.5V22.4C0 21.9 0.4 21.4 1 21.4H4.2C4.7 21.4 5.2 21.8 5.2 22.4V22.5C5.2 23.1 4.8 23.5 4.2 23.5Z" fill="white"/>
</svg>
