<svg width="26" height="29" viewBox="0 0 26 29" fill="none" xmlns="http://www.w3.org/2000/svg">
<path d="M5 7.60001H0.7C0.5 7.60001 0.3 7.8 0.3 8V28.6C0.3 28.8 0.5 29 0.7 29H5C5 28.9 4.9 28.7 4.9 28.6L5 7.60001ZM4 26.1H2C1.8 26.1 1.6 25.9 1.6 25.7C1.6 25.5 1.8 25.3 2 25.3H4C4.2 25.3 4.4 25.5 4.4 25.7C4.4 25.9 4.2 26.1 4 26.1ZM4 11.4H2C1.8 11.4 1.6 11.2 1.6 11C1.6 10.8 1.8 10.6 2 10.6H4C4.2 10.6 4.4 10.8 4.4 11C4.4 11.2 4.2 11.4 4 11.4Z" fill="white"/>
<path d="M14.3 0.699997H7.4C7.2 0.699997 7 0.900006 7 1.10001V28.5C7 28.7 7.2 28.9 7.4 28.9H14.3C14.5 28.9 14.7 28.7 14.7 28.5V1.10001C14.7 0.900006 14.5 0.699997 14.3 0.699997ZM12.4 26.1H9.3C9.1 26.1 8.9 25.9 8.9 25.7C8.9 25.5 9.1 25.3 9.3 25.3H12.4C12.6 25.3 12.8 25.5 12.8 25.7C12.8 25.9 12.6 26.1 12.4 26.1ZM12.4 4.60001H9.3C9.1 4.60001 8.9 4.4 8.9 4.2C8.9 4 9.1 3.8 9.3 3.8H12.4C12.6 3.8 12.8 4 12.8 4.2C12.8 4.4 12.6 4.60001 12.4 4.60001Z" fill="white"/>
<path d="M26 27.2L20.9 7.30001C20.9 7.10001 20.6 6.9 20.4 7L16.8 7.9V15.5L20.2 28.7C20.2 28.9 20.4 29 20.6 29H20.7L25.7 27.8C25.8 27.8 25.9 27.7 26 27.6C26 27.4 26 27.2 26 27.2ZM19.9 10.9L17.5 11.5H17.4C17.2 11.5 17 11.4 17 11.2C17 11 17.1 10.8 17.3 10.7L19.7 10.1C19.9 10.1 20.1 10.2 20.2 10.4C20.3 10.6 20.2 10.8 19.9 10.9ZM23.5 25.2L21.1 25.8H21C20.8 25.8 20.6 25.7 20.6 25.5C20.6 25.3 20.7 25.1 20.9 25L23.3 24.4C23.5 24.4 23.7 24.5 23.8 24.7C23.9 24.9 23.8 25.1 23.5 25.2Z" fill="white"/>
</svg>
