<svg width="26" height="30" viewBox="0 0 26 30" fill="none" xmlns="http://www.w3.org/2000/svg">
<path d="M21.4 0.899994H4.7C2.2 0.899994 0.2 2.89999 0.2 5.39999V25.4C0.2 27.9 2.2 29.9 4.7 29.9H21.4C23.9 29.9 25.9 27.9 25.9 25.4V5.39999C25.9 2.89999 23.9 0.899994 21.4 0.899994ZM10.1 22.1L7.4 26.6C7.2 26.9 6.9 27.1 6.6 27.1C6.6 27.1 6.6 27.1 6.5 27.1C6.2 27.1 5.9 27 5.7 26.7L3.3 23.5C3 23.1 3.1 22.4 3.5 22.1C3.9 21.8 4.6 21.9 4.9 22.3L6.4 24.3L8.3 21.1C8.6 20.6 9.2 20.5 9.7 20.7C10.2 21 10.3 21.6 10.1 22.1ZM10.1 13.6L7.4 18.1C7.2 18.4 6.9 18.6 6.6 18.6C6.6 18.6 6.6 18.6 6.5 18.6C6.2 18.6 5.9 18.5 5.7 18.2L3.4 15C3.1 14.6 3.2 13.9 3.6 13.6C4 13.3 4.7 13.4 5 13.8L6.5 15.8L8.4 12.6C8.7 12.1 9.3 12 9.8 12.2C10.2 12.5 10.3 13.1 10.1 13.6ZM10.1 5.20001L7.4 9.70001C7.2 10 6.9 10.2 6.6 10.2C6.6 10.2 6.6 10.2 6.5 10.2C6.2 10.2 5.9 10.1 5.7 9.79999L3.3 6.60001C3 6.20001 3.1 5.50001 3.5 5.20001C3.9 4.90001 4.6 4.99999 4.9 5.39999L6.4 7.39999L8.3 4.20001C8.6 3.70001 9.2 3.59999 9.7 3.79999C10.2 4.09999 10.3 4.70001 10.1 5.20001ZM22 26.4H14.3C13.7 26.4 13.3 25.9 13.3 25.4C13.3 24.8 13.8 24.4 14.3 24.4H22C22.6 24.4 23 24.9 23 25.4C23 25.9 22.5 26.4 22 26.4ZM22 22.5H14.3C13.7 22.5 13.3 22 13.3 21.5C13.3 21 13.8 20.5 14.3 20.5H22C22.6 20.5 23 21 23 21.5C23 22 22.5 22.5 22 22.5ZM22 18.6H14.3C13.7 18.6 13.3 18.1 13.3 17.6C13.3 17 13.8 16.6 14.3 16.6H22C22.6 16.6 23 17.1 23 17.6C23 18.1 22.5 18.6 22 18.6ZM22 14.7H14.3C13.7 14.7 13.3 14.2 13.3 13.7C13.3 13.2 13.8 12.7 14.3 12.7H22C22.6 12.7 23 13.2 23 13.7C23 14.2 22.5 14.7 22 14.7ZM22 10.8H14.3C13.7 10.8 13.3 10.3 13.3 9.79999C13.3 9.29999 13.8 8.79999 14.3 8.79999H22C22.6 8.79999 23 9.29999 23 9.79999C23 10.3 22.5 10.8 22 10.8ZM22 6.89999H14.3C13.7 6.89999 13.3 6.39999 13.3 5.89999C13.3 5.29999 13.8 4.89999 14.3 4.89999H22C22.6 4.89999 23 5.39999 23 5.89999C23 6.39999 22.5 6.89999 22 6.89999Z" fill="white"/>
</svg>
