<svg width="26" height="26" viewBox="0 0 26 26" fill="none" xmlns="http://www.w3.org/2000/svg">
<path d="M10.8 16.6H6.4C5.8 16.6 5.3 16.1 5.3 15.5V6.7C5.3 6.1 5.8 5.6 6.4 5.6H10.7C11.3 5.6 11.8 6.1 11.8 6.7V15.5C11.9 16.1 11.4 16.6 10.8 16.6Z" fill="white"/>
<path d="M18.3 19.5L10.5 16.6V5.7L18.3 2.8C19.1 2.5 20 3.1 20 4V18.3C19.9 19.2 19.1 19.8 18.3 19.5Z" fill="white"/>
<path d="M9.5 25.9C8.6 25.9 7.9 25.3 7.7 24.5L6.5 18.8C6.4 18.6 6.6 18.3 6.9 18.3H9.8C10 18.3 10.2 18.4 10.2 18.6L11.2 23.7C11.5 24.8 10.7 25.9 9.5 25.9Z" fill="white"/>
<path d="M3.6 7.9C3.6 7.6 3.3 7.4 3.1 7.5C1.5 7.9 0.3 9.39999 0.3 11.2C0.3 13 1.5 14.4 3.1 14.9C3.4 15 3.6 14.8 3.6 14.5V7.9Z" fill="white"/>
<path d="M24.1 21.9C23.1 21.9 22.3 21.1 22.3 20.1V2.4C22.3 1.4 23.1 0.599998 24.1 0.599998C25.1 0.599998 25.9 1.4 25.9 2.4V20.1C25.9 21.1 25.1 21.9 24.1 21.9Z" fill="white"/>
</svg>
