<svg width="26" height="28" viewBox="0 0 26 28" fill="none" xmlns="http://www.w3.org/2000/svg">
<path d="M22.8 0H2.8C1.2 0 0 1.2 0 2.8V16.6C0 17.9 0.6 19.1 1.6 19.9L10.2 26.6C11.7 27.8 13.8 27.8 15.3 26.6L23.9 19.9C24.9 19.1 25.5 17.9 25.5 16.6V2.8C25.6 1.2 24.3 0 22.8 0ZM20.2 7.6L14.1 17.9C13.8 18.3 13.4 18.6 12.9 18.6H12.8C12.3 18.6 11.9 18.4 11.6 18L6.2 10.7C5.7 10 5.8 9.1 6.5 8.6C7.2 8.1 8 8.3 8.5 9L12.6 14.5L17.5 6.1C17.9 5.4 18.8 5.2 19.6 5.6C20.3 6 20.6 6.9 20.2 7.6Z" fill="white"/>
</svg>
