<svg width="26" height="18" viewBox="0 0 26 18" fill="none" xmlns="http://www.w3.org/2000/svg">
<path d="M4.3 17.3H0.9C0.5 17.3 0.2 17 0.2 16.6V13.2C0.2 12.8 0.5 12.5 0.9 12.5H4.3C4.7 12.5 5 12.8 5 13.2V16.6C5 17 4.7 17.3 4.3 17.3Z" fill="white"/>
<path d="M11.2 17.3H7.8C7.4 17.3 7.1 17 7.1 16.6V5.10001C7.1 4.70001 7.4 4.39999 7.8 4.39999H11.2C11.6 4.39999 11.9 4.70001 11.9 5.10001V16.6C11.9 17 11.6 17.3 11.2 17.3Z" fill="white"/>
<path d="M18.1 17.3H14.7C14.3 17.3 14 17 14 16.6V1.20001C14 0.800012 14.3 0.5 14.7 0.5H18.1C18.5 0.5 18.8 0.800012 18.8 1.20001V16.6C18.8 17 18.5 17.3 18.1 17.3Z" fill="white"/>
<path d="M25 17.3H21.6C21.2 17.3 20.9 17 20.9 16.6V11.6C20.9 11.2 21.2 10.9 21.6 10.9H25C25.4 10.9 25.7 11.2 25.7 11.6V16.6C25.7 17 25.4 17.3 25 17.3Z" fill="white"/>
</svg>
