<svg width="26" height="23" viewBox="0 0 26 23" fill="none" xmlns="http://www.w3.org/2000/svg">
<path d="M7.3 5.5C6.7 5.5 6.2 5 6.2 4.3V1.2C6.2 0.5 6.7 0 7.3 0C8 0 8.5 0.5 8.5 1.2V4.3C8.5 5 8 5.5 7.3 5.5Z" fill="white"/>
<path d="M18.3 5.5C17.6 5.5 17.1 5 17.1 4.3V1.2C17.1 0.5 17.6 0 18.3 0C19 0 19.5 0.5 19.5 1.2V4.3C19.5 5 19 5.5 18.3 5.5Z" fill="white"/>
<path d="M23 2.3H20.9V4.3C20.9 5.7 19.7 6.9 18.3 6.9C16.9 6.9 15.7 5.7 15.7 4.3V2.3H10V4.3C10 5.7 8.8 6.9 7.4 6.9C6 6.9 4.7 5.7 4.7 4.3V2.3H3C1.5 2.3 0.2 3.6 0.2 5.1V20.1C0.2 21.7 1.5 23 3 23H23C24.5 23 25.8 21.7 25.8 20.2V5.2C25.8 3.6 24.6 2.3 23 2.3ZM6.1 19.2C6.1 19.6 5.8 20 5.3 20H3.9C3.5 20 3.1 19.7 3.1 19.2V17.9C3.1 17.5 3.4 17.1 3.9 17.1H5.2C5.6 17.1 6 17.4 6 17.9V19.2H6.1ZM6.1 14.7C6.1 15.1 5.8 15.5 5.3 15.5H3.9C3.5 15.5 3.1 15.2 3.1 14.7V13.4C3.1 13 3.4 12.6 3.9 12.6H5.2C5.6 12.6 6 12.9 6 13.4V14.7H6.1ZM11.6 19.2C11.6 19.6 11.3 20 10.8 20H9.5C9.1 20 8.7 19.7 8.7 19.2V17.9C8.7 17.5 9 17.1 9.5 17.1H10.8C11.2 17.1 11.6 17.4 11.6 17.9V19.2ZM11.6 14.7C11.6 15.1 11.3 15.5 10.8 15.5H9.5C9.1 15.5 8.7 15.2 8.7 14.7V13.4C8.7 13 9 12.6 9.5 12.6H10.8C11.2 12.6 11.6 12.9 11.6 13.4V14.7ZM17.1 19.2C17.1 19.6 16.8 20 16.3 20H15C14.6 20 14.2 19.7 14.2 19.2V17.9C14.2 17.5 14.5 17.1 15 17.1H16.3C16.7 17.1 17.1 17.4 17.1 17.9V19.2ZM17.1 14.7C17.1 15.1 16.8 15.5 16.3 15.5H15C14.6 15.5 14.2 15.2 14.2 14.7V13.4C14.2 13 14.5 12.6 15 12.6H16.3C16.7 12.6 17.1 12.9 17.1 13.4V14.7ZM22.6 19.2C22.6 19.6 22.3 20 21.8 20H20.5C20.1 20 19.7 19.7 19.7 19.2V17.9C19.7 17.5 20 17.1 20.5 17.1H21.8C22.2 17.1 22.6 17.4 22.6 17.9V19.2ZM22.6 14.7C22.6 15.1 22.3 15.5 21.8 15.5H20.5C20.1 15.5 19.7 15.2 19.7 14.7V13.4C19.7 13 20 12.6 20.5 12.6H21.8C22.2 12.6 22.6 12.9 22.6 13.4V14.7ZM22.6 9.2H3.2V7.5H22.6V9.2Z" fill="white"/>
</svg>
