<svg width="26" height="18" viewBox="0 0 26 18" fill="none" xmlns="http://www.w3.org/2000/svg">
<path d="M12.9 7.39999C14.8 7.39999 16.4 5.79999 16.4 3.89999C16.4 1.99999 14.8 0.399994 12.9 0.399994C11 0.399994 9.4 1.99999 9.4 3.89999C9.4 5.79999 11 7.39999 12.9 7.39999Z" fill="white"/>
<path d="M15.8 8.09999C15 8.79999 14 9.19999 12.9 9.19999C11.8 9.19999 10.8 8.79999 10 8.09999C8.8 8.49999 7.9 9.69999 7.9 11V16.6C7.9 17.3 8.4 17.8 9.1 17.8H16.7C17.4 17.8 17.9 17.3 17.9 16.6V11C17.9 9.69999 17 8.49999 15.8 8.09999Z" fill="white"/>
<path d="M5 7.2C6.7 7.2 8.1 5.8 8.1 4.2C8.1 4 8.1 3.8 8.1 3.6C7.8 2.1 6.5 1 5 1C3.3 1 1.9 2.4 1.9 4.1C1.8 5.8 3.2 7.2 5 7.2Z" fill="white"/>
<path d="M2.1 7.89999C0.9 8.39999 0 9.69999 0 11.1V15.5C0 16.3 0.6 16.9 1.4 16.9H4.6C5.4 16.9 6 16.3 6 15.5V10.9C6 10.1 6.2 9.39999 6.5 8.69999C6 8.89999 5.5 8.99999 4.9 8.99999C3.9 8.89999 2.9 8.49999 2.1 7.89999Z" fill="white"/>
<path d="M17.8 4.2C17.8 5.9 19.2 7.2 20.9 7.2C22.6 7.2 24 5.8 24 4.1C24 2.4 22.6 1 20.9 1C19.3 1 18.1 2.1 17.8 3.6C17.8 3.8 17.8 4 17.8 4.2Z" fill="white"/>
<path d="M23.7 7.89999C22.9 8.49999 21.9 8.89999 20.8 8.89999C20.2 8.89999 19.7 8.79999 19.2 8.59999C19.5 9.29999 19.7 10 19.7 10.8V15.9C19.7 16.4 20.1 16.8 20.6 16.8H24.8C25.3 16.8 25.7 16.4 25.7 15.9V11C25.8 9.59999 25 8.39999 23.7 7.89999Z" fill="white"/>
</svg>
