<svg width="26" height="27" viewBox="0 0 26 27" fill="none" xmlns="http://www.w3.org/2000/svg">
<path d="M22.2 16.3C22.3 16 22.5 15.8 22.8 15.7L25.9 15.1V11.6L22.9 11C22.6 10.9 22.4 10.7 22.3 10.5C22.1 10 21.9 9.5 21.7 9C21.6 8.7 21.6 8.40001 21.7 8.20001L23.4 5.59998L20.9 3.10001L18.3 4.79999C18.1 4.99999 17.8 4.99999 17.5 4.79999C17 4.49999 16.5 4.30001 16 4.20001C15.7 4.10001 15.5 3.90001 15.4 3.60001L14.8 0.5H11.3L10.7 3.60001C10.6 3.90001 10.4 4.10001 10.2 4.20001C9.7 4.40001 9.2 4.59999 8.7 4.79999C8.4 4.89999 8.1 4.89999 7.9 4.79999L5.3 3.10001L2.8 5.59998L4.5 8.20001C4.7 8.40001 4.7 8.7 4.5 9C4.2 9.5 4 10 3.9 10.5C3.8 10.8 3.6 11 3.3 11.1L0.2 11.7V15.2L3.3 15.8C3.6 15.9 3.8 16.1 3.9 16.4C4.1 16.9 4.3 17.4 4.5 17.9C4.6 18.2 4.6 18.5 4.5 18.7L2.8 21.3L5.3 23.8L7.9 22.1C8.1 21.9 8.4 21.9 8.7 22.1C9.2 22.4 9.7 22.6 10.2 22.7C10.5 22.8 10.7 23 10.8 23.3L11.4 26.4H14.9L15.5 23.3C15.6 23 15.8 22.8 16.1 22.7C16.6 22.5 17.1 22.3 17.6 22.1C17.9 22 18.2 22 18.4 22.1L21 23.8L23.5 21.3L21.8 18.7C21.6 18.5 21.6 18.2 21.8 17.9C21.8 17.4 22 16.9 22.2 16.3ZM18.3 10.7L14.1 17.8C13.9 18.1 13.6 18.3 13.2 18.4C13.2 18.4 13.2 18.4 13.1 18.4C12.7 18.4 12.4 18.2 12.2 17.9L8.4 12.9C8 12.4 8.1 11.7 8.6 11.3C9.1 10.9 9.8 11 10.2 11.5L12.9 15.1L16.2 9.40002C16.5 8.90002 17.2 8.7 17.8 9C18.4 9.4 18.6 10.1 18.3 10.7Z" fill="white"/>
</svg>
